<svg xmlns="http://www.w3.org/2000/svg" version="1.1" xmlns:xlink="http://www.w3.org/1999/xlink" xmlns:svgjs="http://svgjs.dev/svgjs" width="1440" height="560" preserveAspectRatio="none" viewBox="0 0 1440 560"><g mask="url(&quot;#SvgjsMask1000&quot;)" fill="none"><rect width="1440" height="560" x="0" y="0" fill="#0e2a47"></rect><path d="M0,416.586C76.602,413.929,124.065,334.109,192.371,299.335C271.192,259.207,375.365,265.467,431.347,196.99C490.722,124.364,516.439,20.182,495.308,-71.215C474.572,-160.904,384.465,-211.434,321.411,-278.504C261.27,-342.476,219.183,-435.199,133.814,-455.73C48.87,-476.159,-36.094,-425.363,-112.411,-382.836C-176.758,-346.979,-211.349,-279.4,-267.717,-231.978C-338.248,-172.64,-463.58,-159.415,-484.64,-69.681C-505.251,18.142,-414.535,92.304,-360.835,164.788C-316.711,224.346,-261.926,270.565,-201.141,312.982C-138.014,357.034,-76.932,419.254,0,416.586" fill="#0b2239"></path><path d="M1440 958.856C1527.576 974.385 1624.234 1010.991 1701.306 966.6 1778.527 922.123 1793.208 819.156 1826.243 736.391 1857.665 657.667 1897.9270000000001 579.72 1889.385 495.38800000000003 1880.6689999999999 409.337 1830.024 336.13800000000003 1778.654 266.555 1723.558 191.926 1665.83 116.805 1581.4470000000001 78.27600000000001 1489.978 36.511999999999944 1380.436 2.8250000000000455 1288.065 42.55499999999995 1196.627 81.88400000000001 1172.771 197.392 1115.397 278.73 1064.768 350.506 990.212 406.88599999999997 970.669 492.52 950.38 581.424 955.27 682.418 1005.973 758.213 1054.877 831.319 1152.319 846.504 1232.156 883.4110000000001 1300.441 914.9780000000001 1365.927 945.722 1440 958.856" fill="#113255"></path></g><defs><mask id="SvgjsMask1000"><rect width="1440" height="560" fill="#ffffff"></rect></mask></defs></svg>